<?xml version="1.0" encoding="UTF-8"?>
<svg xmlns="http://www.w3.org/2000/svg" xmlns:xlink="http://www.w3.org/1999/xlink" width="32px" height="32px" viewBox="0 0 32 32" version="1.1">
<g id="surface1">
<path style=" stroke:none;fill-rule:nonzero;fill:rgb(21.568628%,70.588237%,28.627452%);fill-opacity:1;" d="M 17.585938 2.023438 C 19.683594 3.699219 21.382812 6.355469 21.796875 9.101562 C 21.828125 9.398438 21.851562 9.695312 21.863281 9.992188 C 21.980469 9.972656 22.097656 9.957031 22.21875 9.9375 C 24.671875 9.574219 27.125 9.53125 29.328125 10.855469 C 31.050781 12.210938 31.679688 14.230469 31.96875 16.386719 C 32.265625 20.363281 31.4375 24.984375 29.03125 28.183594 C 28.222656 29.152344 27.34375 29.824219 26.246094 30.402344 C 26.164062 30.445312 26.082031 30.488281 26 30.53125 C 24.769531 31.148438 23.34375 31.375 22 31.023438 C 21.4375 30.78125 21.039062 30.460938 20.640625 29.976562 C 20.574219 29.898438 20.503906 29.820312 20.433594 29.738281 C 19.9375 28.902344 19.929688 27.925781 20.085938 26.984375 C 20.460938 25.402344 21.101562 24.171875 22.445312 23.308594 C 22.878906 23.050781 23.332031 22.855469 23.792969 22.65625 C 25.164062 22.039062 26.507812 21.433594 27.117188 19.925781 C 27.332031 19.257812 27.398438 18.664062 27.359375 17.960938 C 25.222656 17.828125 23.0625 18.671875 21.421875 20.105469 C 21.25 20.238281 21.25 20.238281 21.007812 20.238281 C 20.988281 20.308594 20.96875 20.375 20.945312 20.449219 C 20.730469 21.164062 20.453125 21.800781 20.097656 22.449219 C 20.046875 22.546875 19.992188 22.644531 19.9375 22.746094 C 17.742188 26.710938 14.585938 30.375 10.257812 31.746094 C 10.125 31.792969 10.125 31.792969 9.984375 31.839844 C 8.433594 32.296875 6.714844 32.121094 5.320312 31.324219 C 4.058594 30.515625 3.394531 29.351562 2.914062 27.914062 C 2.515625 26.121094 2.78125 24.191406 3.632812 22.585938 C 3.957031 22.0625 4.339844 21.679688 4.808594 21.296875 C 5.023438 21.132812 5.023438 21.132812 5.128906 20.871094 C 5.039062 20.835938 4.953125 20.800781 4.859375 20.765625 C 3.074219 19.980469 1.476562 18.222656 0.609375 16.441406 C -0.484375 13.589844 -0.046875 10.613281 1.097656 7.84375 C 1.714844 6.449219 2.398438 5.167969 3.417969 4.046875 C 3.507812 3.949219 3.507812 3.949219 3.59375 3.847656 C 7.335938 -0.375 13.015625 -1.292969 17.585938 2.023438 Z M 9.160156 4.425781 C 8.25 5.804688 8.03125 7.082031 8.304688 8.726562 C 8.546875 9.523438 8.921875 10.128906 9.597656 10.59375 C 10.765625 11.21875 11.894531 11.328125 13.191406 11.257812 C 14.015625 9.082031 15.027344 6.398438 14.207031 4.070312 C 13.992188 3.601562 13.792969 3.351562 13.3125 3.160156 C 11.746094 2.621094 10.214844 3.179688 9.160156 4.425781 Z M 9.160156 4.425781 "/>
<path style=" stroke:none;fill-rule:nonzero;fill:rgb(45.09804%,16.078432%,54.901963%);fill-opacity:1;" d="M 11.488281 1.550781 C 12.359375 1.933594 13.167969 2.421875 13.800781 3.160156 C 13.761719 3.246094 13.722656 3.328125 13.679688 3.414062 C 13.574219 3.375 13.472656 3.332031 13.363281 3.292969 C 12.390625 2.988281 11.285156 3.007812 10.375 3.511719 C 9.335938 4.195312 8.710938 5.121094 8.375 6.363281 C 8.183594 7.5 8.28125 8.71875 8.839844 9.722656 C 9.492188 10.601562 10.457031 10.949219 11.480469 11.128906 C 12.050781 11.191406 12.617188 11.230469 13.191406 11.257812 C 12.789062 13.511719 10.957031 15.789062 9.527344 17.453125 C 9.421875 17.59375 9.421875 17.59375 9.3125 17.730469 C 8.410156 18.890625 6.539062 20.671875 5.128906 20.996094 C 4.824219 20.855469 4.597656 20.722656 4.328125 20.53125 C 4.253906 20.476562 4.179688 20.425781 4.101562 20.371094 C 2.136719 18.964844 0.539062 17.109375 0.0585938 14.621094 C -0.367188 11.234375 0.742188 7.820312 2.585938 5.035156 C 2.851562 4.691406 3.128906 4.367188 3.417969 4.046875 C 3.507812 3.949219 3.507812 3.949219 3.59375 3.847656 C 4.53125 2.792969 5.511719 1.976562 6.71875 1.265625 C 6.804688 1.214844 6.890625 1.164062 6.980469 1.109375 C 8.15625 0.601562 10.339844 1.117188 11.488281 1.550781 Z M 11.488281 1.550781 "/>
<path style=" stroke:none;fill-rule:nonzero;fill:rgb(13.725491%,31.37255%,62.352943%);fill-opacity:1;" d="M 27.359375 17.835938 C 28.390625 17.867188 29.023438 18.195312 29.773438 18.929688 C 30.492188 19.75 30.871094 20.667969 31.023438 21.753906 C 31.046875 21.902344 31.066406 22.050781 31.089844 22.207031 C 31.253906 23.566406 30.976562 24.578125 30.414062 25.800781 C 30.3125 26.023438 30.3125 26.023438 30.210938 26.246094 C 29.296875 28.117188 28.042969 29.457031 26.246094 30.402344 C 26.164062 30.445312 26.082031 30.488281 26 30.53125 C 24.769531 31.148438 23.34375 31.375 22 31.023438 C 21.4375 30.78125 21.039062 30.460938 20.640625 29.976562 C 20.574219 29.898438 20.503906 29.820312 20.433594 29.738281 C 19.9375 28.902344 19.929688 27.925781 20.085938 26.984375 C 20.460938 25.402344 21.101562 24.171875 22.445312 23.308594 C 22.878906 23.050781 23.332031 22.855469 23.792969 22.65625 C 25.164062 22.039062 26.503906 21.433594 27.117188 19.933594 C 27.351562 19.21875 27.394531 18.585938 27.359375 17.835938 Z M 27.359375 17.835938 "/>
<path style=" stroke:none;fill-rule:nonzero;fill:rgb(96.862745%,71.764708%,13.725491%);fill-opacity:1;" d="M 29.679688 11.128906 C 31.191406 12.359375 31.714844 14.5 31.96875 16.386719 C 32.121094 18.414062 31.925781 20.414062 31.511719 22.394531 C 31.492188 22.492188 31.472656 22.59375 31.449219 22.695312 C 31.398438 22.929688 31.332031 23.164062 31.265625 23.398438 C 31.144531 23.460938 31.144531 23.460938 31.023438 23.527344 C 31.015625 23.359375 31.015625 23.359375 31.007812 23.1875 C 30.921875 21.523438 30.679688 19.929688 29.464844 18.734375 C 28.378906 17.839844 27.105469 17.824219 25.769531 17.960938 C 24.164062 18.261719 22.503906 19.15625 21.25 20.238281 C 21.171875 20.195312 21.089844 20.152344 21.007812 20.109375 C 21.046875 19.988281 21.085938 19.867188 21.128906 19.738281 C 21.183594 19.566406 21.234375 19.398438 21.289062 19.226562 C 21.316406 19.144531 21.34375 19.066406 21.367188 18.984375 C 22 16.957031 22.03125 15.011719 22.007812 12.902344 C 22.003906 12.617188 22.003906 12.335938 22.003906 12.050781 C 22 11.363281 21.992188 10.679688 21.984375 9.992188 C 24.597656 9.605469 27.453125 9.375 29.679688 11.128906 Z M 29.679688 11.128906 "/>
<path style=" stroke:none;fill-rule:nonzero;fill:rgb(96.470588%,87.058824%,17.647059%);fill-opacity:1;" d="M 31.632812 15.050781 C 31.675781 15.050781 31.714844 15.050781 31.753906 15.050781 C 31.796875 15.550781 31.835938 16.054688 31.878906 16.570312 C 31.558594 16.238281 31.554688 16.015625 31.511719 15.558594 C 31.566406 15.257812 31.566406 15.257812 31.632812 15.050781 Z M 31.632812 15.050781 "/>
</g>
</svg>
