<?xml version="1.0" encoding="UTF-8"?>
<svg version="1.1" xmlns="http://www.w3.org/2000/svg" width="262" height="253">
<path d="M0 0 C17.1487783 13.23855016 31.08295944 34.2370018 34.4609375 55.96484375 C34.70457365 58.31231097 34.89569381 60.64268012 35 63 C35.95777344 62.855625 36.91554687 62.71125 37.90234375 62.5625 C57.99598768 59.69088549 78.07132171 59.34136659 96.125 69.8125 C110.22848485 80.54341238 115.37933712 96.51935605 117.75 113.5625 C120.18188141 144.99901582 113.40561002 181.53999279 93.6875 206.8125 C87.0598129 214.48549345 79.86229702 219.80386583 70.875 224.375 C70.21814209 224.70910889 69.56128418 225.04321777 68.88452148 225.38745117 C58.79874632 230.28107382 47.13830277 232.05681149 36.140625 229.27734375 C31.53031076 227.36669339 28.25513882 224.82957509 25 221 C24.443125 220.38125 23.88625 219.7625 23.3125 219.125 C19.22396362 212.50546491 19.16439529 204.78892783 20.46484375 197.3359375 C23.50941112 184.83339459 28.76350816 175.0971236 39.76171875 168.28198242 C43.31498442 166.24683866 47.03938402 164.70187312 50.8125 163.125 C62.02551045 158.25697987 73.04801649 153.45760939 78.0234375 141.55078125 C79.79573581 136.24201612 80.30955524 131.57199436 80 126 C62.4960877 124.96867292 44.83059728 131.63160409 31.3828125 142.96875 C30 144 30 144 28 144 C27.83491943 144.55107422 27.66983887 145.10214844 27.49975586 145.66992188 C25.72599465 151.31430699 23.4717104 156.35613683 20.5625 161.5 C20.12929443 162.27045654 19.69608887 163.04091309 19.24975586 163.8347168 C1.25628321 195.1914824 -24.58261382 224.15973434 -60 235 C-61.11181641 235.36931641 -61.11181641 235.36931641 -62.24609375 235.74609375 C-74.94263774 239.33478552 -89.02200877 237.96076904 -100.453125 231.64453125 C-110.78181734 225.26605071 -116.20701471 216.04645762 -120.1484375 204.69140625 C-123.41827441 190.51711323 -121.22708932 175.25851499 -114.25 162.5625 C-111.5976093 158.44484999 -108.46338969 155.40718116 -104.63671875 152.375 C-102.87398179 151.07893995 -102.87398179 151.07893995 -102 149 C-102.72832031 148.73316406 -103.45664063 148.46632812 -104.20703125 148.19140625 C-118.82343126 141.95643841 -131.92113649 128.05802471 -139 114 C-147.96365655 91.43435033 -144.36793376 67.89918783 -135 46 C-129.97446532 34.98725424 -124.35117488 24.85489654 -116 16 C-115.29085449 15.22366211 -115.29085449 15.22366211 -114.56738281 14.43164062 C-83.93879877 -18.95645163 -37.43507136 -26.23036724 0 0 Z M-69 19 C-76.44126274 29.90615227 -78.24178876 40.00647437 -76 53 C-74.0359312 59.30703129 -70.96642805 64.09001372 -65.4140625 67.75 C-55.84963886 72.70245237 -46.62837758 73.57364557 -36 73 C-29.25604606 55.80182619 -20.97825738 34.58381042 -27.6875 16.1875 C-29.43846376 12.48688155 -31.06866296 10.51205271 -35 9 C-47.82225962 4.72591346 -60.3533192 9.15188565 -69 19 Z " fill="#37B449" transform="translate(144,16)"/>
<path d="M0 0 C7.12200298 3.04843309 13.7580285 6.89494526 18.9375 12.75 C18.6075 13.41 18.2775 14.07 17.9375 14.75 C17.08800781 14.42773438 16.23851563 14.10546875 15.36328125 13.7734375 C7.37565674 11.38716883 -1.67926797 11.52742304 -9.109375 15.50390625 C-17.60879625 20.92653701 -22.75341581 28.24803917 -25.5 38.0625 C-27.04357381 47.03452278 -26.27011948 56.6687421 -21.6953125 64.62890625 C-16.35716717 71.5633869 -8.43815767 74.31844627 -0.0625 75.75 C4.60056123 76.23732812 9.25370963 76.55170815 13.9375 76.75 C10.65070526 94.57973587 -4.35775956 112.58672492 -16.0625 125.75 C-16.93261719 126.83667969 -16.93261719 126.83667969 -17.8203125 127.9453125 C-25.1987701 137.10349856 -40.53473611 151.18447391 -52.0625 153.75 C-54.55604383 152.64487134 -56.42109577 151.59863812 -58.625 150.0625 C-59.2341626 149.65257812 -59.8433252 149.24265625 -60.47094727 148.8203125 C-76.55689585 137.69400664 -89.64180524 123.0250049 -93.59375 103.359375 C-97.07288336 76.57004811 -87.98506927 49.58002951 -72.875 27.5625 C-70.71345485 24.82878114 -68.45350969 22.28522932 -66.0625 19.75 C-65.35335449 18.97366211 -65.35335449 18.97366211 -64.62988281 18.18164062 C-56.95969685 9.82040277 -48.91987865 3.36626398 -39.0625 -2.25 C-38.35480469 -2.65347656 -37.64710937 -3.05695312 -36.91796875 -3.47265625 C-27.29905732 -7.50247388 -9.39646588 -3.42993062 0 0 Z " fill="#73298C" transform="translate(94.0625,12.25)"/>
<path d="M0 0 C8.45156096 0.26830352 13.63923916 2.85243191 19.7578125 8.671875 C25.65637246 15.13361405 28.7539905 22.40130077 30 31 C30.18175781 32.17691406 30.36351562 33.35382813 30.55078125 34.56640625 C31.89872769 45.33254168 29.62324699 53.31056021 25 63 C24.18595703 64.73636719 24.18595703 64.73636719 23.35546875 66.5078125 C15.88295822 81.31283336 5.59286352 91.88917542 -9.125 99.375 C-9.78185791 99.70910889 -10.43871582 100.04321777 -11.11547852 100.38745117 C-21.20125368 105.28107382 -32.86169723 107.05681149 -43.859375 104.27734375 C-48.46968924 102.36669339 -51.74486118 99.82957509 -55 96 C-55.556875 95.38125 -56.11375 94.7625 -56.6875 94.125 C-60.77603638 87.50546491 -60.83560471 79.78892783 -59.53515625 72.3359375 C-56.49058888 59.83339459 -51.23649184 50.0971236 -40.23828125 43.28198242 C-36.68501558 41.24683866 -32.96061598 39.70187312 -29.1875 38.125 C-17.96607307 33.25332594 -7.01095942 28.46096535 -1.9765625 16.5859375 C-0.07102386 10.93924961 0.28695717 5.93044815 0 0 Z " fill="#23509F" transform="translate(224,141)"/>
<path d="M0 0 C12.3704478 9.71757788 16.67268053 26.62825735 18.75 41.5625 C19.98959553 57.58653984 18.37818557 73.39843638 15 89.0625 C14.8340332 89.84278564 14.66806641 90.62307129 14.49707031 91.42700195 C14.06770548 93.30199349 13.54240976 95.15453554 13 97 C12.01 97.495 12.01 97.495 11 98 C10.94392578 96.67548828 10.94392578 96.67548828 10.88671875 95.32421875 C10.16679189 82.18202456 8.18501482 69.56622681 -1.75 60.125 C-10.63353479 53.04772921 -21.07110494 52.92955123 -32 54 C-45.16741258 56.3872504 -58.75729534 63.46441278 -69 72 C-69.66 71.67 -70.32 71.34 -71 71 C-70.67386719 70.030625 -70.34773437 69.06125 -70.01171875 68.0625 C-69.56978948 66.70850393 -69.12841427 65.35432693 -68.6875 64 C-68.47416016 63.3709375 -68.26082031 62.741875 -68.04101562 62.09375 C-62.8785748 46.06706804 -62.61538002 30.68205315 -62.8125 14 C-62.82758404 11.76042573 -62.84126582 9.52084156 -62.85351562 7.28125 C-62.88620312 1.85394659 -62.93610326 -3.57297886 -63 -9 C-41.61912144 -12.05541062 -18.23650779 -13.87560376 0 0 Z " fill="#F7B723" transform="translate(243,88)"/>
<path d="M0 0 C0.33 0 0.66 0 1 0 C1.33 3.96 1.66 7.92 2 12 C-0.61020066 9.38979934 -0.63751674 7.62483262 -1 4 C-0.5625 1.625 -0.5625 1.625 0 0 Z " fill="#F6DE2D" transform="translate(259,119)"/>
</svg>
